<svg xmlns="http://www.w3.org/2000/svg" xmlns:xlink="http://www.w3.org/1999/xlink" width="180" zoomAndPan="magnify" viewBox="0 0 135 48.75" height="65" preserveAspectRatio="xMidYMid meet" version="1.0"><defs><g/><clipPath id="0ea43d3f52"><path d="M 2.171875 1.453125 L 133.125 1.453125 L 133.125 46.46875 L 2.171875 46.46875 Z M 2.171875 1.453125 " clip-rule="nonzero"/></clipPath><clipPath id="5e53a215db"><path d="M 4.410156 1.453125 L 130.886719 1.453125 C 132.125 1.453125 133.125 2.457031 133.125 3.695312 L 133.125 44.210938 C 133.125 45.445312 132.125 46.449219 130.886719 46.449219 L 4.410156 46.449219 C 3.175781 46.449219 2.171875 45.445312 2.171875 44.210938 L 2.171875 3.695312 C 2.171875 2.457031 3.175781 1.453125 4.410156 1.453125 " clip-rule="nonzero"/></clipPath><clipPath id="42182794cf"><path d="M 0.34375 0.0742188 L 134.65625 0.0742188 L 134.65625 48.5 L 0.34375 48.5 Z M 0.34375 0.0742188 " clip-rule="nonzero"/></clipPath><clipPath id="975c0901f5"><path d="M 129.851562 2.378906 C 131.222656 2.378906 132.351562 3.507812 132.351562 4.878906 L 132.351562 43.722656 C 132.351562 45.09375 131.222656 46.222656 129.851562 46.222656 L 5.148438 46.222656 C 3.777344 46.222656 2.648438 45.09375 2.648438 43.722656 L 2.648438 4.878906 C 2.648438 3.507812 3.777344 2.378906 5.148438 2.378906 L 129.851562 2.378906 M 129.851562 0.0742188 L 5.148438 0.0742188 C 2.5 0.0742188 0.34375 2.230469 0.34375 4.878906 L 0.34375 43.722656 C 0.34375 46.371094 2.5 48.527344 5.148438 48.527344 L 129.851562 48.527344 C 132.5 48.527344 134.65625 46.371094 134.65625 43.722656 L 134.65625 4.878906 C 134.65625 2.230469 132.5 0.0742188 129.851562 0.0742188 " clip-rule="nonzero"/></clipPath></defs><g clip-path="url(#0ea43d3f52)"><g clip-path="url(#5e53a215db)"><path fill="#ffffff" d="M 2.171875 1.453125 L 133.125 1.453125 L 133.125 46.46875 L 2.171875 46.46875 Z M 2.171875 1.453125 " fill-opacity="1" fill-rule="nonzero"/></g></g><g clip-path="url(#42182794cf)"><g clip-path="url(#975c0901f5)"><path fill="#000000" d="M 0.34375 0.0742188 L 134.65625 0.0742188 L 134.65625 48.601562 L 0.34375 48.601562 Z M 0.34375 0.0742188 " fill-opacity="1" fill-rule="nonzero"/></g></g><g fill="#000000" fill-opacity="1"><g transform="translate(12.251916, 24.822393)"><g><path d="M 1.671875 0 L 1.671875 -14.375 L 3.765625 -14.375 L 3.765625 -1.75 L 10.75 -1.75 L 10.75 0 Z M 1.671875 0 "/></g></g></g><g fill="#000000" fill-opacity="1"><g transform="translate(23.407593, 24.822393)"><g><path d="M 7.84375 0.15625 C 6.488281 0.15625 5.3125 -0.140625 4.3125 -0.734375 C 3.3125 -1.328125 2.539062 -2.175781 2 -3.28125 C 1.457031 -4.382812 1.1875 -5.679688 1.1875 -7.171875 C 1.1875 -8.679688 1.453125 -9.988281 1.984375 -11.09375 C 2.523438 -12.207031 3.296875 -13.054688 4.296875 -13.640625 C 5.304688 -14.234375 6.488281 -14.53125 7.84375 -14.53125 C 9.21875 -14.53125 10.40625 -14.234375 11.40625 -13.640625 C 12.414062 -13.054688 13.1875 -12.207031 13.71875 -11.09375 C 14.257812 -9.988281 14.53125 -8.691406 14.53125 -7.203125 C 14.53125 -5.703125 14.257812 -4.394531 13.71875 -3.28125 C 13.1875 -2.175781 12.414062 -1.328125 11.40625 -0.734375 C 10.40625 -0.140625 9.21875 0.15625 7.84375 0.15625 Z M 7.84375 -1.546875 C 9.289062 -1.546875 10.414062 -2.035156 11.21875 -3.015625 C 12.019531 -3.992188 12.421875 -5.390625 12.421875 -7.203125 C 12.421875 -9.003906 12.019531 -10.390625 11.21875 -11.359375 C 10.425781 -12.335938 9.300781 -12.828125 7.84375 -12.828125 C 6.414062 -12.828125 5.304688 -12.335938 4.515625 -11.359375 C 3.722656 -10.390625 3.328125 -9.003906 3.328125 -7.203125 C 3.328125 -5.390625 3.722656 -3.992188 4.515625 -3.015625 C 5.304688 -2.035156 6.414062 -1.546875 7.84375 -1.546875 Z M 7.84375 -1.546875 "/></g></g></g><g fill="#000000" fill-opacity="1"><g transform="translate(39.131593, 24.822393)"><g><path d="M 7.421875 0.15625 C 5.503906 0.15625 4.046875 -0.335938 3.046875 -1.328125 C 2.054688 -2.316406 1.5625 -3.773438 1.5625 -5.703125 L 1.5625 -14.375 L 3.65625 -14.375 L 3.65625 -5.5625 C 3.65625 -4.25 3.96875 -3.25 4.59375 -2.5625 C 5.226562 -1.882812 6.171875 -1.546875 7.421875 -1.546875 C 8.660156 -1.546875 9.597656 -1.882812 10.234375 -2.5625 C 10.867188 -3.25 11.1875 -4.25 11.1875 -5.5625 L 11.1875 -14.375 L 13.28125 -14.375 L 13.28125 -5.703125 C 13.28125 -3.785156 12.78125 -2.328125 11.78125 -1.328125 C 10.78125 -0.335938 9.328125 0.15625 7.421875 0.15625 Z M 7.421875 0.15625 "/></g></g></g><g fill="#000000" fill-opacity="1"><g transform="translate(53.978639, 24.822393)"><g><path d="M 1.671875 0 L 1.671875 -14.375 L 3.765625 -14.375 L 3.765625 0 Z M 1.671875 0 "/></g></g></g><g fill="#000000" fill-opacity="1"><g transform="translate(59.423916, 24.822393)"><g><path d="M 6.375 0.15625 C 5.257812 0.15625 4.238281 0.0078125 3.3125 -0.28125 C 2.382812 -0.582031 1.585938 -1.023438 0.921875 -1.609375 L 1.671875 -3.15625 C 2.378906 -2.582031 3.109375 -2.171875 3.859375 -1.921875 C 4.617188 -1.671875 5.46875 -1.546875 6.40625 -1.546875 C 7.476562 -1.546875 8.304688 -1.742188 8.890625 -2.140625 C 9.472656 -2.546875 9.765625 -3.117188 9.765625 -3.859375 C 9.765625 -4.484375 9.492188 -4.945312 8.953125 -5.25 C 8.410156 -5.550781 7.539062 -5.835938 6.34375 -6.109375 C 5.195312 -6.359375 4.253906 -6.640625 3.515625 -6.953125 C 2.785156 -7.265625 2.210938 -7.6875 1.796875 -8.21875 C 1.390625 -8.757812 1.1875 -9.445312 1.1875 -10.28125 C 1.1875 -11.125 1.40625 -11.863281 1.84375 -12.5 C 2.289062 -13.132812 2.921875 -13.628906 3.734375 -13.984375 C 4.546875 -14.347656 5.488281 -14.53125 6.5625 -14.53125 C 7.570312 -14.53125 8.519531 -14.378906 9.40625 -14.078125 C 10.300781 -13.773438 11.035156 -13.335938 11.609375 -12.765625 L 10.875 -11.21875 C 10.207031 -11.757812 9.519531 -12.160156 8.8125 -12.421875 C 8.113281 -12.691406 7.375 -12.828125 6.59375 -12.828125 C 5.550781 -12.828125 4.734375 -12.613281 4.140625 -12.1875 C 3.554688 -11.757812 3.265625 -11.164062 3.265625 -10.40625 C 3.265625 -9.75 3.519531 -9.253906 4.03125 -8.921875 C 4.550781 -8.585938 5.382812 -8.285156 6.53125 -8.015625 C 7.71875 -7.742188 8.679688 -7.460938 9.421875 -7.171875 C 10.171875 -6.878906 10.765625 -6.476562 11.203125 -5.96875 C 11.648438 -5.457031 11.875 -4.789062 11.875 -3.96875 C 11.875 -3.144531 11.648438 -2.421875 11.203125 -1.796875 C 10.765625 -1.171875 10.132812 -0.6875 9.3125 -0.34375 C 8.488281 -0.0078125 7.507812 0.15625 6.375 0.15625 Z M 6.375 0.15625 "/></g></g></g><g fill="#000000" fill-opacity="1"><g transform="translate(72.211137, 24.822393)"><g><path d="M 1.671875 0 L 1.671875 -14.375 L 3.765625 -14.375 L 3.765625 0 Z M 1.671875 0 "/></g></g></g><g fill="#000000" fill-opacity="1"><g transform="translate(77.656414, 24.822393)"><g><path d="M 12.65625 0 L 11.140625 -3.546875 L 3.859375 -3.546875 L 2.328125 0 L 0.203125 0 L 6.609375 -14.375 L 8.359375 -14.375 L 14.765625 0 Z M 4.5625 -5.21875 L 10.421875 -5.21875 L 7.5 -12.03125 Z M 4.5625 -5.21875 "/></g></g></g><g fill="#000000" fill-opacity="1"><g transform="translate(92.625819, 24.822393)"><g><path d="M 11.5 -14.375 L 13.484375 -14.375 L 13.484375 0 L 11.875 0 L 3.65625 -10.84375 L 3.65625 0 L 1.671875 0 L 1.671875 -14.375 L 3.265625 -14.375 L 11.5 -3.5 Z M 11.5 -14.375 "/></g></g></g><g fill="#000000" fill-opacity="1"><g transform="translate(107.778779, 24.822393)"><g><path d="M 12.65625 0 L 11.140625 -3.546875 L 3.859375 -3.546875 L 2.328125 0 L 0.203125 0 L 6.609375 -14.375 L 8.359375 -14.375 L 14.765625 0 Z M 4.5625 -5.21875 L 10.421875 -5.21875 L 7.5 -12.03125 Z M 4.5625 -5.21875 "/></g></g></g><g fill="#000000" fill-opacity="1"><g transform="translate(13.288631, 38.79076)"><g><path d="M 6.78125 0 L 5.609375 0 L 4.359375 -2.34375 C 4.222656 -2.59375 4.054688 -2.765625 3.859375 -2.859375 C 3.671875 -2.960938 3.421875 -3.015625 3.109375 -3.015625 L 1.90625 -3.015625 L 1.90625 0 L 0.84375 0 L 0.84375 -7.3125 L 3.96875 -7.3125 C 4.769531 -7.3125 5.382812 -7.128906 5.8125 -6.765625 C 6.238281 -6.410156 6.453125 -5.890625 6.453125 -5.203125 C 6.453125 -4.640625 6.296875 -4.175781 5.984375 -3.8125 C 5.671875 -3.457031 5.222656 -3.234375 4.640625 -3.140625 C 4.992188 -3.023438 5.289062 -2.753906 5.53125 -2.328125 Z M 3.84375 -3.875 C 4.375 -3.875 4.769531 -3.976562 5.03125 -4.1875 C 5.289062 -4.40625 5.421875 -4.734375 5.421875 -5.171875 C 5.421875 -5.617188 5.289062 -5.941406 5.03125 -6.140625 C 4.78125 -6.347656 4.382812 -6.453125 3.84375 -6.453125 L 1.90625 -6.453125 L 1.90625 -3.875 Z M 3.84375 -3.875 "/></g></g></g><g fill="#000000" fill-opacity="1"><g transform="translate(20.441966, 38.79076)"><g><path d="M 4 0.078125 C 3.300781 0.078125 2.695312 -0.0703125 2.1875 -0.375 C 1.6875 -0.675781 1.296875 -1.109375 1.015625 -1.671875 C 0.742188 -2.234375 0.609375 -2.894531 0.609375 -3.65625 C 0.609375 -4.414062 0.742188 -5.078125 1.015625 -5.640625 C 1.285156 -6.210938 1.675781 -6.644531 2.1875 -6.9375 C 2.695312 -7.238281 3.300781 -7.390625 4 -7.390625 C 4.695312 -7.390625 5.300781 -7.238281 5.8125 -6.9375 C 6.320312 -6.644531 6.710938 -6.210938 6.984375 -5.640625 C 7.253906 -5.078125 7.390625 -4.414062 7.390625 -3.65625 C 7.390625 -2.894531 7.253906 -2.234375 6.984375 -1.671875 C 6.710938 -1.109375 6.320312 -0.675781 5.8125 -0.375 C 5.300781 -0.0703125 4.695312 0.078125 4 0.078125 Z M 4 -0.78125 C 4.726562 -0.78125 5.296875 -1.03125 5.703125 -1.53125 C 6.109375 -2.03125 6.3125 -2.738281 6.3125 -3.65625 C 6.3125 -4.582031 6.109375 -5.289062 5.703125 -5.78125 C 5.304688 -6.28125 4.738281 -6.53125 4 -6.53125 C 3.269531 -6.53125 2.703125 -6.28125 2.296875 -5.78125 C 1.890625 -5.289062 1.6875 -4.582031 1.6875 -3.65625 C 1.6875 -2.738281 1.890625 -2.03125 2.296875 -1.53125 C 2.703125 -1.03125 3.269531 -0.78125 4 -0.78125 Z M 4 -0.78125 "/></g></g></g><g fill="#000000" fill-opacity="1"><g transform="translate(28.435041, 38.79076)"><g><path d="M 6.4375 0 L 5.671875 -1.8125 L 1.953125 -1.8125 L 1.1875 0 L 0.109375 0 L 3.359375 -7.3125 L 4.25 -7.3125 L 7.515625 0 Z M 2.328125 -2.65625 L 5.296875 -2.65625 L 3.8125 -6.125 Z M 2.328125 -2.65625 "/></g></g></g><g fill="#000000" fill-opacity="1"><g transform="translate(36.044529, 38.79076)"><g><path d="M 3.25 0.078125 C 2.675781 0.078125 2.148438 0.00390625 1.671875 -0.140625 C 1.203125 -0.296875 0.800781 -0.519531 0.46875 -0.8125 L 0.84375 -1.609375 C 1.207031 -1.316406 1.582031 -1.101562 1.96875 -0.96875 C 2.351562 -0.84375 2.78125 -0.78125 3.25 -0.78125 C 3.800781 -0.78125 4.222656 -0.882812 4.515625 -1.09375 C 4.816406 -1.300781 4.96875 -1.585938 4.96875 -1.953125 C 4.96875 -2.273438 4.828125 -2.515625 4.546875 -2.671875 C 4.273438 -2.828125 3.835938 -2.972656 3.234375 -3.109375 C 2.648438 -3.234375 2.171875 -3.375 1.796875 -3.53125 C 1.421875 -3.695312 1.128906 -3.914062 0.921875 -4.1875 C 0.710938 -4.457031 0.609375 -4.804688 0.609375 -5.234375 C 0.609375 -5.660156 0.71875 -6.035156 0.9375 -6.359375 C 1.164062 -6.679688 1.484375 -6.929688 1.890625 -7.109375 C 2.304688 -7.296875 2.789062 -7.390625 3.34375 -7.390625 C 3.851562 -7.390625 4.332031 -7.3125 4.78125 -7.15625 C 5.238281 -7.007812 5.613281 -6.789062 5.90625 -6.5 L 5.53125 -5.703125 C 5.1875 -5.984375 4.835938 -6.191406 4.484375 -6.328125 C 4.128906 -6.460938 3.75 -6.53125 3.34375 -6.53125 C 2.820312 -6.53125 2.410156 -6.421875 2.109375 -6.203125 C 1.804688 -5.984375 1.65625 -5.679688 1.65625 -5.296875 C 1.65625 -4.960938 1.785156 -4.707031 2.046875 -4.53125 C 2.316406 -4.363281 2.738281 -4.210938 3.3125 -4.078125 C 3.925781 -3.941406 4.421875 -3.796875 4.796875 -3.640625 C 5.171875 -3.492188 5.46875 -3.289062 5.6875 -3.03125 C 5.914062 -2.769531 6.03125 -2.429688 6.03125 -2.015625 C 6.03125 -1.597656 5.914062 -1.226562 5.6875 -0.90625 C 5.46875 -0.59375 5.148438 -0.347656 4.734375 -0.171875 C 4.316406 -0.00390625 3.820312 0.078125 3.25 0.078125 Z M 3.25 0.078125 "/></g></g></g><g fill="#000000" fill-opacity="1"><g transform="translate(42.544732, 38.79076)"><g><path d="M 2.59375 0 L 2.59375 -6.421875 L 0.125 -6.421875 L 0.125 -7.3125 L 6.15625 -7.3125 L 6.15625 -6.421875 L 3.671875 -6.421875 L 3.671875 0 Z M 2.59375 0 "/></g></g></g><g fill="#000000" fill-opacity="1"><g transform="translate(48.816859, 38.79076)"><g><path d="M 0.84375 0 L 0.84375 -7.3125 L 1.921875 -7.3125 L 1.921875 0 Z M 0.84375 0 "/></g></g></g><g fill="#000000" fill-opacity="1"><g transform="translate(51.584888, 38.79076)"><g><path d="M 5.84375 -7.3125 L 6.859375 -7.3125 L 6.859375 0 L 6.03125 0 L 1.859375 -5.515625 L 1.859375 0 L 0.84375 0 L 0.84375 -7.3125 L 1.65625 -7.3125 L 5.84375 -1.78125 Z M 5.84375 -7.3125 "/></g></g></g><g fill="#000000" fill-opacity="1"><g transform="translate(59.287683, 38.79076)"><g><path d="M 6.78125 -3.875 L 6.78125 -0.4375 C 6.46875 -0.28125 6.078125 -0.15625 5.609375 -0.0625 C 5.140625 0.03125 4.664062 0.078125 4.1875 0.078125 C 3.445312 0.078125 2.804688 -0.0664062 2.265625 -0.359375 C 1.722656 -0.660156 1.3125 -1.085938 1.03125 -1.640625 C 0.75 -2.203125 0.609375 -2.875 0.609375 -3.65625 C 0.609375 -4.425781 0.75 -5.09375 1.03125 -5.65625 C 1.3125 -6.21875 1.71875 -6.644531 2.25 -6.9375 C 2.78125 -7.238281 3.40625 -7.390625 4.125 -7.390625 C 4.632812 -7.390625 5.109375 -7.3125 5.546875 -7.15625 C 5.984375 -7.007812 6.351562 -6.789062 6.65625 -6.5 L 6.28125 -5.71875 C 5.9375 -6 5.59375 -6.203125 5.25 -6.328125 C 4.90625 -6.453125 4.53125 -6.515625 4.125 -6.515625 C 3.34375 -6.515625 2.738281 -6.269531 2.3125 -5.78125 C 1.894531 -5.289062 1.6875 -4.582031 1.6875 -3.65625 C 1.6875 -2.707031 1.898438 -1.988281 2.328125 -1.5 C 2.765625 -1.019531 3.394531 -0.78125 4.21875 -0.78125 C 4.75 -0.78125 5.28125 -0.859375 5.8125 -1.015625 L 5.8125 -3.078125 L 4.109375 -3.078125 L 4.109375 -3.875 Z M 6.78125 -3.875 "/></g></g></g><g fill="#000000" fill-opacity="1"><g transform="translate(66.834971, 38.79076)"><g/></g></g><g fill="#000000" fill-opacity="1"><g transform="translate(69.571898, 38.79076)"><g><path d="M 4.0625 0.078125 C 3.363281 0.078125 2.75 -0.0703125 2.21875 -0.375 C 1.695312 -0.675781 1.296875 -1.109375 1.015625 -1.671875 C 0.742188 -2.234375 0.609375 -2.894531 0.609375 -3.65625 C 0.609375 -4.414062 0.742188 -5.078125 1.015625 -5.640625 C 1.296875 -6.210938 1.695312 -6.644531 2.21875 -6.9375 C 2.75 -7.238281 3.363281 -7.390625 4.0625 -7.390625 C 4.5625 -7.390625 5.023438 -7.3125 5.453125 -7.15625 C 5.878906 -7.007812 6.242188 -6.789062 6.546875 -6.5 L 6.171875 -5.703125 C 5.835938 -5.984375 5.5 -6.1875 5.15625 -6.3125 C 4.820312 -6.4375 4.460938 -6.5 4.078125 -6.5 C 3.316406 -6.5 2.726562 -6.253906 2.3125 -5.765625 C 1.90625 -5.273438 1.703125 -4.570312 1.703125 -3.65625 C 1.703125 -2.75 1.90625 -2.046875 2.3125 -1.546875 C 2.726562 -1.054688 3.316406 -0.8125 4.078125 -0.8125 C 4.460938 -0.8125 4.820312 -0.875 5.15625 -1 C 5.5 -1.125 5.835938 -1.328125 6.171875 -1.609375 L 6.546875 -0.8125 C 6.242188 -0.53125 5.878906 -0.3125 5.453125 -0.15625 C 5.023438 0 4.5625 0.078125 4.0625 0.078125 Z M 4.0625 0.078125 "/></g></g></g><g fill="#000000" fill-opacity="1"><g transform="translate(76.590458, 38.79076)"><g><path d="M 4 0.078125 C 3.300781 0.078125 2.695312 -0.0703125 2.1875 -0.375 C 1.6875 -0.675781 1.296875 -1.109375 1.015625 -1.671875 C 0.742188 -2.234375 0.609375 -2.894531 0.609375 -3.65625 C 0.609375 -4.414062 0.742188 -5.078125 1.015625 -5.640625 C 1.285156 -6.210938 1.675781 -6.644531 2.1875 -6.9375 C 2.695312 -7.238281 3.300781 -7.390625 4 -7.390625 C 4.695312 -7.390625 5.300781 -7.238281 5.8125 -6.9375 C 6.320312 -6.644531 6.710938 -6.210938 6.984375 -5.640625 C 7.253906 -5.078125 7.390625 -4.414062 7.390625 -3.65625 C 7.390625 -2.894531 7.253906 -2.234375 6.984375 -1.671875 C 6.710938 -1.109375 6.320312 -0.675781 5.8125 -0.375 C 5.300781 -0.0703125 4.695312 0.078125 4 0.078125 Z M 4 -0.78125 C 4.726562 -0.78125 5.296875 -1.03125 5.703125 -1.53125 C 6.109375 -2.03125 6.3125 -2.738281 6.3125 -3.65625 C 6.3125 -4.582031 6.109375 -5.289062 5.703125 -5.78125 C 5.304688 -6.28125 4.738281 -6.53125 4 -6.53125 C 3.269531 -6.53125 2.703125 -6.28125 2.296875 -5.78125 C 1.890625 -5.289062 1.6875 -4.582031 1.6875 -3.65625 C 1.6875 -2.738281 1.890625 -2.03125 2.296875 -1.53125 C 2.703125 -1.03125 3.269531 -0.78125 4 -0.78125 Z M 4 -0.78125 "/></g></g></g><g fill="#000000" fill-opacity="1"><g transform="translate(84.583533, 38.79076)"><g><path d="M 7.015625 -7.3125 L 7.859375 -7.3125 L 7.859375 0 L 6.90625 0 L 6.90625 -5.296875 L 4.734375 -1.171875 L 4 -1.171875 L 1.8125 -5.234375 L 1.828125 0 L 0.859375 0 L 0.859375 -7.3125 L 1.71875 -7.3125 L 4.375 -2.25 Z M 7.015625 -7.3125 "/></g></g></g><g fill="#000000" fill-opacity="1"><g transform="translate(93.302311, 38.79076)"><g><path d="M 0.84375 -7.3125 L 3.875 -7.3125 C 4.65625 -7.3125 5.257812 -7.117188 5.6875 -6.734375 C 6.113281 -6.359375 6.328125 -5.820312 6.328125 -5.125 C 6.328125 -4.4375 6.113281 -3.894531 5.6875 -3.5 C 5.257812 -3.113281 4.65625 -2.921875 3.875 -2.921875 L 1.921875 -2.921875 L 1.921875 0 L 0.84375 0 Z M 3.765625 -3.78125 C 4.785156 -3.78125 5.296875 -4.226562 5.296875 -5.125 C 5.296875 -6.007812 4.785156 -6.453125 3.765625 -6.453125 L 1.921875 -6.453125 L 1.921875 -3.78125 Z M 3.765625 -3.78125 "/></g></g></g><g fill="#000000" fill-opacity="1"><g transform="translate(100.061696, 38.79076)"><g><path d="M 6.4375 0 L 5.671875 -1.8125 L 1.953125 -1.8125 L 1.1875 0 L 0.109375 0 L 3.359375 -7.3125 L 4.25 -7.3125 L 7.515625 0 Z M 2.328125 -2.65625 L 5.296875 -2.65625 L 3.8125 -6.125 Z M 2.328125 -2.65625 "/></g></g></g><g fill="#000000" fill-opacity="1"><g transform="translate(107.671185, 38.79076)"><g><path d="M 5.84375 -7.3125 L 6.859375 -7.3125 L 6.859375 0 L 6.03125 0 L 1.859375 -5.515625 L 1.859375 0 L 0.84375 0 L 0.84375 -7.3125 L 1.65625 -7.3125 L 5.84375 -1.78125 Z M 5.84375 -7.3125 "/></g></g></g><g fill="#000000" fill-opacity="1"><g transform="translate(115.373979, 38.79076)"><g><path d="M 6.625 -7.3125 L 3.703125 -3.40625 L 3.703125 0 L 2.640625 0 L 2.640625 -3.40625 L -0.28125 -7.3125 L 0.9375 -7.3125 L 3.171875 -4.296875 L 5.40625 -7.3125 Z M 6.625 -7.3125 "/></g></g></g></svg>